<?xml version="1.0" encoding="UTF-8" standalone="no"?>
<!DOCTYPE svg PUBLIC "-//W3C//DTD SVG 1.1//EN" "http://www.w3.org/Graphics/SVG/1.1/DTD/svg11.dtd">
<svg width="100%" height="100%" viewBox="0 0 184 124" version="1.1" xmlns="http://www.w3.org/2000/svg"
     xml:space="preserve"
     style="fill-rule:evenodd;clip-rule:evenodd;stroke-linejoin:round;stroke-miterlimit:2;">
    <g transform="matrix(1.33333,0,0,1.33333,-437.84,-2233.83)">
        <g transform="matrix(1.3986,0,0,1.01316,-129.244,-14.5255)">
            <path d="M407.563,1705.4C407.621,1705.51 407.793,1705.83 407.928,1705.99C408.466,1706.61 409.232,1706.97 410.094,1706.97L420.476,1706.97C423.238,1706.97 425.481,1710.07 425.481,1713.88C425.481,1717.7 423.238,1720.79 420.476,1720.79L410.094,1720.79C402.628,1720.79 397.554,1712.71 397.554,1705.6C397.554,1703.81 397.537,1697.12 396.025,1690.88C394.937,1686.38 393.08,1681.76 388.85,1681.76C385.743,1681.76 384.293,1685.26 383.275,1689.08C380.854,1698.18 381.255,1710.29 381.255,1713.88C381.255,1718.15 381.824,1732.39 379.229,1743.11C376.917,1752.66 372.337,1759.59 364.561,1759.59C356.928,1759.59 352.378,1754.19 349.629,1746.97C346.419,1738.53 346.15,1727.05 345.681,1722.07C345.624,1721.47 345.177,1721.38 344.882,1721.24C343.95,1720.79 343.066,1720.79 343.066,1720.79C343.029,1720.79 342.993,1720.79 342.956,1720.79L332.206,1720.79C329.443,1720.79 327.201,1717.7 327.201,1713.88C327.201,1710.07 329.443,1706.97 332.206,1706.97C332.206,1706.97 342.943,1706.97 342.943,1706.97C343.437,1706.97 345.762,1707.02 348.188,1708.19C351.567,1709.83 354.956,1713.37 355.608,1720.29C355.936,1723.77 355.979,1731.09 357.566,1737.52C358.614,1741.77 360.443,1745.77 364.561,1745.77C367.548,1745.77 368.847,1742.4 369.735,1738.73C371.938,1729.62 371.245,1717.51 371.245,1713.88C371.245,1709.59 370.989,1695.17 373.879,1684.32C376.406,1674.82 381.137,1667.94 388.85,1667.94C396.473,1667.94 401.176,1673.77 403.973,1681.36C407.32,1690.43 407.555,1702.24 407.563,1705.4Z" style="fill:white;"/>
        </g>
    </g>
</svg>
