<?xml version="1.0" encoding="UTF-8" standalone="no"?>
<!DOCTYPE svg PUBLIC "-//W3C//DTD SVG 1.1//EN" "http://www.w3.org/Graphics/SVG/1.1/DTD/svg11.dtd">
<svg width="100%" height="100%" viewBox="0 0 171 120" version="1.1" xmlns="http://www.w3.org/2000/svg"
     xml:space="preserve"
     style="fill-rule:evenodd;clip-rule:evenodd;stroke-linejoin:round;stroke-miterlimit:2;">
    <g transform="matrix(1.33333,0,0,1.33333,-163.401,-2236)">
        <g id="wave-square" transform="matrix(0.2,0,0,0.2,122.551,1670.6)">
            <path d="M476,480L324,480C304.251,480 288,463.749 288,444L288,96L192,96L192,252C192,271.749 175.749,288 156,288L16,288C7.223,288 0,280.777 0,272L0,240C-0,231.223 7.223,224 16,224L128,224L128,68C128,48.251 144.251,32 164,32L316,32C335.749,32 352,48.251 352,68L352,416L448,416L448,260C448,240.251 464.251,224 484,224L624,224C632.777,224 640,231.223 640,240L640,272C640,280.777 632.777,288 624,288L512,288L512,444C512,463.749 495.749,480 476,480Z" style="fill:white;fill-rule:nonzero;"/>
        </g>
    </g>
</svg>
